<svg id="Layer_1" data-name="Layer 1" xmlns="http://www.w3.org/2000/svg" viewBox="0 0 262.21 335.13"><defs><style>.cls-1{fill:none;stroke:#231f20;stroke-linecap:round;stroke-linejoin:round;stroke-width:8px;}.cls-2{fill:#231f20;}</style></defs><title>logo</title><line class="cls-1" x1="28.36" y1="309.13" x2="217.15" y2="309.13"/><path class="cls-2" d="M53.58,1.55a5.56,5.56,0,0,1,1.48,4v40.9a5.06,5.06,0,0,1-1.37,3.74,4.87,4.87,0,0,1-3.6,1.37,4.77,4.77,0,0,1-3.53-1.37,5.06,5.06,0,0,1-1.37-3.74V21L35,40.25A8,8,0,0,1,32.77,43a5,5,0,0,1-5.65,0,7.76,7.76,0,0,1-2.23-2.74L14.67,21.38V46.44a5.09,5.09,0,0,1-1.37,3.71,4.8,4.8,0,0,1-3.6,1.4,4.77,4.77,0,0,1-3.53-1.37A5.06,5.06,0,0,1,4.8,46.44V5.54a5.56,5.56,0,0,1,1.48-4A5.08,5.08,0,0,1,10.13,0q3.46,0,5.26,3.67L30,31.39,44.55,3.67Q46.49,0,49.73,0A5.08,5.08,0,0,1,53.58,1.55Z"/><path class="cls-2" d="M89.24,15.91a4.85,4.85,0,0,1,2.56-.72,5.54,5.54,0,0,1,3.67,1.33,4.06,4.06,0,0,1,1.58,3.2,4.47,4.47,0,0,1-.5,2L77.18,61.49a5.2,5.2,0,0,1-1.94,2.27,4.85,4.85,0,0,1-2.59.76,5.25,5.25,0,0,1-3.53-1.3A4,4,0,0,1,67.61,60a4.75,4.75,0,0,1,.5-2.16L72.86,48,60,21.74a4.92,4.92,0,0,1-.43-1.94,4.12,4.12,0,0,1,1.69-3.31,6,6,0,0,1,3.85-1.37,5,5,0,0,1,2.66.76,5.2,5.2,0,0,1,1.94,2.27L78.7,37.58l8.71-19.44A4.65,4.65,0,0,1,89.24,15.91Z"/><path class="cls-2" d="M40.7,125.56a5.14,5.14,0,0,1-1.48,3.6,4.55,4.55,0,0,1-3.42,1.58,4.92,4.92,0,0,1-3.46-1.51L16.58,114.62v11A4.7,4.7,0,0,1,15,129.45a5.8,5.8,0,0,1-3.85,1.29,5.91,5.91,0,0,1-3.92-1.29,4.69,4.69,0,0,1-1.55-3.82V84.38a4.69,4.69,0,0,1,1.55-3.82,5.91,5.91,0,0,1,3.92-1.3A5.8,5.8,0,0,1,15,80.56a4.7,4.7,0,0,1,1.55,3.82v25.78L31,96A4.83,4.83,0,0,1,38,95.87a4.72,4.72,0,0,1,1.51,3.49,5,5,0,0,1-1.66,3.53L28.31,112,39,122A4.87,4.87,0,0,1,40.7,125.56Z"/><path class="cls-2" d="M45.83,87.08a5.08,5.08,0,0,1-1.66-4,5,5,0,0,1,1.66-4,6.68,6.68,0,0,1,4.54-1.44,6.61,6.61,0,0,1,4.5,1.48,5,5,0,0,1,1.69,3.92,5.08,5.08,0,0,1-1.66,4,6.58,6.58,0,0,1-4.54,1.48A6.57,6.57,0,0,1,45.83,87.08Zm.61,42.45a4.69,4.69,0,0,1-1.55-3.82V99.43a4.64,4.64,0,0,1,1.58-3.82,5.93,5.93,0,0,1,3.89-1.3,5.79,5.79,0,0,1,3.85,1.3,4.69,4.69,0,0,1,1.55,3.82v26.28a4.7,4.7,0,0,1-1.55,3.82,5.8,5.8,0,0,1-3.85,1.29A5.91,5.91,0,0,1,46.44,129.53Z"/><path class="cls-2" d="M94.61,97.88q3.09,3.71,3.1,11.2v16.63a4.86,4.86,0,0,1-1.48,3.74,5.65,5.65,0,0,1-4,1.37,5.51,5.51,0,0,1-4-1.37,4.92,4.92,0,0,1-1.44-3.74V109.58q0-3.6-1.33-5.26a5,5,0,0,0-4.14-1.66,7.15,7.15,0,0,0-5.44,2.16,8,8,0,0,0-2.05,5.76v15.12a4.92,4.92,0,0,1-1.44,3.74,5.52,5.52,0,0,1-4,1.37,5.64,5.64,0,0,1-4-1.37A4.85,4.85,0,0,1,63,125.71V99.29a4.57,4.57,0,0,1,1.55-3.6,5.81,5.81,0,0,1,4-1.37,5.07,5.07,0,0,1,3.64,1.33,4.51,4.51,0,0,1,1.4,3.42v1a12.4,12.4,0,0,1,4.86-4.39,14.69,14.69,0,0,1,6.73-1.51Q91.51,94.17,94.61,97.88Z"/><path class="cls-2" d="M139,80.64a4.57,4.57,0,0,1,1.55,3.6v41.47a4.88,4.88,0,0,1-1.48,3.71,6.18,6.18,0,0,1-7.85,0,4.87,4.87,0,0,1-1.48-3.71v-.58a11.06,11.06,0,0,1-4.5,4.28,13.82,13.82,0,0,1-6.59,1.55,14.42,14.42,0,0,1-8.1-2.34,15.51,15.51,0,0,1-5.54-6.55,22.49,22.49,0,0,1-2-9.68,22,22,0,0,1,2-9.61,14.49,14.49,0,0,1,13.64-8.6,13.94,13.94,0,0,1,6.52,1.51,10.84,10.84,0,0,1,4.5,4.25V84a4.42,4.42,0,0,1,1.44-3.46,5.49,5.49,0,0,1,3.82-1.3A5.92,5.92,0,0,1,139,80.64Zm-11.3,39.42q2.05-2.63,2.05-7.52T127.66,105a7,7,0,0,0-5.87-2.59,7.19,7.19,0,0,0-5.9,2.56q-2.09,2.56-2.09,7.38t2.09,7.6a7.84,7.84,0,0,0,11.77.07Z"/><path class="cls-2" d="M14.54,201.9A15.9,15.9,0,0,1,8,195.5,21.82,21.82,0,0,1,8,176a15.68,15.68,0,0,1,6.55-6.37,20.93,20.93,0,0,1,9.86-2.23,21,21,0,0,1,9.87,2.23A15.69,15.69,0,0,1,40.82,176a21.8,21.8,0,0,1,0,19.51,15.91,15.91,0,0,1-6.55,6.41,20.65,20.65,0,0,1-9.87,2.27A20.63,20.63,0,0,1,14.54,201.9Zm17.78-16.16q0-5.11-2.05-7.63a7.14,7.14,0,0,0-5.87-2.52q-7.92,0-7.92,10.15t7.92,10.15Q32.32,195.89,32.32,185.74Z"/><path class="cls-2" d="M63.69,162.56A6.87,6.87,0,0,0,62.4,167v1.22h5q4.9,0,4.9,4.1t-4.9,4h-5v22.46a4.69,4.69,0,0,1-1.55,3.82A5.8,5.8,0,0,1,57,204a5.91,5.91,0,0,1-3.92-1.29,4.69,4.69,0,0,1-1.55-3.82V176.38H48.64q-4.82,0-4.82-4t4.82-4.1h2.88q0-6.91,3.82-10.87t10.51-4.46l1.87-.14,1.3-.07q5,0,5,3.82t-4.18,4.1l-1.87.14A5.77,5.77,0,0,0,63.69,162.56Z"/><path class="cls-2" d="M230,313.56a6.54,6.54,0,0,1,0-8.86,6.35,6.35,0,0,1,8.78,0,6.54,6.54,0,0,1,0,8.86,6.35,6.35,0,0,1-8.78,0Z"/><rect class="cls-1" x="4" y="230.13" width="254.21" height="101"/></svg>